<?xml version="1.0" encoding="utf-8"?>
<!-- Svg Vector Icons : http://www.onlinewebfonts.com/icon -->
<!DOCTYPE svg PUBLIC "-//W3C//DTD SVG 1.1//EN" "http://www.w3.org/Graphics/SVG/1.1/DTD/svg11.dtd">
<svg version="1.1" xmlns="http://www.w3.org/2000/svg" xmlns:xlink="http://www.w3.org/1999/xlink" x="0px" y="0px" viewBox="0 0 1000 1000" enable-background="new 0 0 1000 1000" xml:space="preserve">
<metadata> Svg Vector Icons : http://www.onlinewebfonts.com/icon </metadata>
<g><path d="M290,80c0,38.7,31.3,70,70,70c38.7,0,70-31.3,70-70s-31.3-70-70-70C321.3,10,290,41.3,290,80z"/><path d="M570,80c0,38.7,31.3,70,70,70s70-31.3,70-70s-31.3-70-70-70S570,41.3,570,80z"/><path d="M290,360c0,38.7,31.3,70,70,70c38.7,0,70-31.3,70-70s-31.3-70-70-70C321.3,290,290,321.3,290,360z"/><path d="M570,360c0,38.7,31.3,70,70,70s70-31.3,70-70s-31.3-70-70-70S570,321.3,570,360z"/><path d="M290,640c0,38.7,31.3,70,70,70c38.7,0,70-31.3,70-70s-31.3-70-70-70C321.3,570,290,601.3,290,640z"/><path d="M570,640c0,38.7,31.3,70,70,70s70-31.3,70-70s-31.3-70-70-70S570,601.3,570,640z"/><path d="M290,920c0,38.7,31.3,70,70,70c38.7,0,70-31.3,70-70c0-38.7-31.3-70-70-70C321.3,850,290,881.3,290,920z"/><path d="M570,920c0,38.7,31.3,70,70,70s70-31.3,70-70c0-38.7-31.3-70-70-70S570,881.3,570,920z"/></g>
</svg>